PathFileType	4	(X/Y/Z)	C:\Users\WrightLab\Desktop\Jo\P5V12.trc
DataRate	CameraRate	NumFrames	NumMarkers	Units	OrigDataRate	OrigDataStartFrame	OrigNumFrames
100.00	100.00	      12	19	mm	100.00	260	      2078
Frame#	Time	Headset_Front			Headset_Back			Headset_Left			Headset_Right			Left_Shoulder			Right_Shoulder			Sternum			C7			Left Elbow			Right Elbow			Left Wrist			Right Wrist			Left ASIS			Right ASIS			S2			Left Knee			Right Knee			Left Ankle			Right Ankle			
		X1	Y1	Z1	X2	Y2	Z2	X3	Y3	Z3	X4	Y4	Z4	X5	Y5	Z5	X6	Y6	Z6	X7	Y7	Z7	X8	Y8	Z8	X9	Y9	Z9	X10	Y10	Z10	X11	Y11	Z11	X12	Y12	Z12	X13	Y13	Z13	X14	Y14	Z14	X15	Y15	Z15	X16	Y16	Z16	X17	Y17	Z17	X18	Y18	Z18	X19	Y19	Z19	

260	2.590	245.92349	1827.62354	2339.05249										364.57272	1511.09998	1590.05640	132.56821	1568.10535	1616.50671	235.10678	1372.06628	1428.41907							432.82959	1253.13062	1682.61780	-8.54497	1175.19348	1221.93445	474.31772	1167.45959	1463.08997	144.12410	973.78308	1353.00989	358.93976	1001.53217	1513.29346	88.31342	1010.93170	1658.09106	131.38696	532.35773	1390.53320	343.43063	537.55634	1653.94116	140.94545	137.07990	1518.93420	108.34639	201.95071	1841.63477	
261	2.600	246.93602	1827.09180	2337.63696										367.31775	1510.95862	1585.21423	134.96613	1567.68054	1612.88049	236.59560	1372.55286	1422.93774							435.87589	1253.22937	1677.87915	-7.94486	1175.22925	1218.90991	476.90048	1167.25818	1458.53894	145.49336	974.56677	1346.88464	361.53900	1001.85034	1506.71802	93.06654	1010.23254	1652.92651	132.29611	532.23090	1386.34436	348.55603	537.11871	1645.74329	140.44461	136.51724	1518.55786	112.63417	205.79057	1840.07739	
262	2.610	247.33823	1826.73535	2337.22412										369.65039	1511.22461	1579.23669	137.87685	1567.05310	1608.48730	237.99669	1372.95923	1418.53943							438.77676	1253.13867	1672.26929	-8.50948	1176.25940	1215.71472	477.54730	1167.19934	1451.96118	147.33669	974.92639	1341.04041	364.17743	1001.95441	1499.56482	97.62590	1009.99463	1648.32056	133.15085	531.54437	1382.18005	354.97772	537.86090	1641.85400	140.26447	135.77795	1518.28479	118.32310	210.09048	1839.69409	
263	2.620	248.60518	1826.42603	2335.37354										372.06833	1512.05737	1574.48376	140.04395	1566.88879	1605.97485	239.23468	1373.48840	1413.73682							441.93536	1253.50867	1665.96265	-8.94629	1175.72717	1211.60352	480.59622	1166.77722	1445.76379	148.76956	975.63647	1335.00452	367.04111	1002.62280	1492.34546	102.29678	1008.73810	1643.17578	133.51511	531.63623	1377.46313	359.91833	537.87488	1633.87415	139.71045	134.19400	1517.47656	123.97985	212.33028	1834.77637	
264	2.630	249.03520	1826.38525	2334.70703										374.51178	1511.67029	1568.20300	142.37976	1566.91858	1602.44531	240.09218	1373.88562	1408.56177							445.27664	1253.70801	1659.62805	-9.17150	1175.95959	1208.33496	482.74872	1166.57898	1440.50195	149.99144	975.94409	1329.14856	369.83859	1003.12402	1485.22498	106.68748	1008.66382	1637.94812	134.23448	531.03839	1373.16687	365.79019	538.33813	1624.60864	139.44374	134.48332	1516.74609	130.65102	215.23683	1831.03992	
265	2.640	249.75977	1826.31775	2333.64502										376.73550	1511.74951	1562.41931	144.83574	1566.48364	1598.70044	241.47624	1373.65869	1403.58728							448.61490	1253.51392	1654.58838	-9.21264	1175.76208	1205.07019	484.22772	1166.50366	1434.49475	152.15852	976.66010	1323.78662	372.69382	1003.81769	1478.56470	111.17548	1007.95227	1633.07849	134.45201	531.00903	1368.85132	371.46851	538.41248	1616.58325	139.23973	134.29446	1516.68176	138.25333	220.27422	1827.65540	
266	2.650	-80.33246	1235.03015	1406.53796										378.53970	1511.76746	1556.36548	147.03943	1566.01416	1595.13342	242.32457	1374.05115	1398.05261							451.32971	1253.51953	1648.16211	-9.24222	1176.17871	1201.90662	486.43210	1166.39453	1427.73059	152.99916	976.68878	1318.14502	375.18228	1004.22052	1471.51050	114.85784	1007.38068	1627.95422	134.69238	531.07373	1364.06982	377.27084	538.96844	1608.73547	139.12675	134.06583	1516.57593	146.85265	223.07582	1821.78735	
267	2.660	251.55925	1825.57690	2331.14087	-78.96095	1234.47046	1404.10803							380.91821	1511.59680	1551.09692	149.64952	1565.68591	1590.69690	243.62471	1373.61475	1393.95703							454.29694	1253.33496	1642.34912	-8.98827	1176.44421	1199.37109	488.27972	1165.97791	1421.72034	154.17368	976.91589	1313.33459	378.20074	1004.25732	1464.43042	119.09591	1006.63354	1622.40442	134.52994	531.01227	1358.77905	383.14682	539.42511	1599.96179	138.97144	133.88351	1516.54932	154.87996	229.11490	1818.27417	
268	2.670				-77.80940	1234.03223	1401.83374							382.56094	1511.75623	1544.85657	151.92570	1565.31799	1587.39038	244.61148	1374.07385	1388.94653							457.52155	1253.34363	1636.50537	-10.03946	1175.98096	1195.64050	489.45093	1166.32996	1415.31213	154.67589	976.85016	1307.93396	381.12643	1005.09564	1458.41479	122.40585	1005.98279	1617.53540	135.14398	530.85278	1353.74292	388.59024	539.57050	1590.83447	138.82321	133.70808	1516.47998	163.77550	233.96271	1812.88647	
269	2.680	97.63805	1692.62683	1334.89282	253.62822	1824.68005	2328.25488							385.46530	1512.19592	1539.40955	154.41592	1564.31860	1583.66650	245.62701	1373.92603	1384.19690							460.34622	1252.85144	1629.89661	-10.17075	1175.70264	1192.59277	491.45248	1165.95288	1408.77014	155.87376	976.86365	1303.40076	383.66916	1004.70691	1451.95459	125.84455	1005.77472	1613.19336	135.59508	530.52380	1349.02417	393.99341	539.24268	1582.15454	138.78923	133.52489	1516.40430	173.18526	239.60075	1806.41821	
270	2.690	98.26993	1692.01245	1331.59583	254.10786	1824.69177	2327.52759							387.71255	1511.85046	1534.07068	156.70639	1564.38013	1579.53589	246.82390	1373.47876	1379.58960							463.64496	1253.14648	1623.56763	-10.31961	1176.36926	1190.21204	492.72272	1165.55481	1402.03503	156.01149	976.71930	1298.49341	386.05688	1004.74072	1445.40271	128.99112	1004.95038	1608.77063	136.11987	529.93634	1344.66223	399.63779	539.44336	1572.63892	138.71635	133.40363	1516.36499	183.39291	245.14790	1799.42053	
271	2.700	98.39107	1692.15747	1328.11121	-74.54749	1232.91235	1394.32068							389.80374	1512.28101	1528.50000	159.36488	1564.05286	1574.86206	248.07407	1373.60022	1374.69434							466.83105	1253.19946	1617.06873	-10.94454	1176.10168	1187.03479	494.36407	1165.71765	1395.74768	157.20192	976.13788	1294.44324	388.42670	1004.54425	1438.97437	132.17570	1005.22650	1604.47192	136.15845	529.71558	1339.42627	405.29623	539.18567	1563.05859	138.68839	133.29518	1516.28796	192.46709	252.62170	1792.23425	
